<?xml version="1.0" encoding="UTF-8" standalone="no"?><!-- Generator: Gravit.io --><svg xmlns="http://www.w3.org/2000/svg" xmlns:xlink="http://www.w3.org/1999/xlink" style="isolation:isolate" viewBox="0 0 1024 1024" width="1024pt" height="1024pt"><defs><clipPath id="_clipPath_DkMiTB2qivetQ4Rv64YZgkhTeryKO6rl"><rect width="1024" height="1024"/></clipPath></defs><g clip-path="url(#_clipPath_DkMiTB2qivetQ4Rv64YZgkhTeryKO6rl)"><linearGradient id="_lgradient_6" x1="-0.3749996654667433" y1="1.4902223748351189" x2="1.353394735455211" y2="-0.4010586047472122" gradientTransform="matrix(977,0,0,890.762,23.5,66.619)" gradientUnits="userSpaceOnUse"><stop offset="1.25%" stop-opacity="1" style="stop-color:rgb(5,134,255)"/><stop offset="99.16666666666667%" stop-opacity="1" style="stop-color:rgb(190,61,255)"/></linearGradient><path d=" M 643.241 778.752 C 643.241 680.163 723.282 600.122 821.87 600.122 C 920.459 600.122 1000.5 680.163 1000.5 778.752 C 1000.5 877.34 920.459 957.381 821.87 957.381 C 723.282 957.381 643.241 877.34 643.241 778.752 Z  M 594.471 88.617 L 594.471 88.617 C 672.942 133.922 699.869 234.413 654.564 312.884 L 329.858 875.291 C 284.552 953.762 184.061 980.689 105.59 935.383 L 105.59 935.383 C 27.119 890.078 0.192 789.587 45.498 711.116 L 370.204 148.709 C 415.509 70.238 516 43.311 594.471 88.617 Z " fill-rule="evenodd" fill="url(#_lgradient_6)"/></g></svg>