<?xml version="1.0" encoding="UTF-8" standalone="no"?><!-- Generator: Gravit.io --><svg xmlns="http://www.w3.org/2000/svg" xmlns:xlink="http://www.w3.org/1999/xlink" style="isolation:isolate" viewBox="0 0 1024 1024" width="1024pt" height="1024pt"><defs><clipPath id="_clipPath_WD5ka2ikAgFRs9m6RR6PEMb54vHEar2d"><rect width="1024" height="1024"/></clipPath></defs><g clip-path="url(#_clipPath_WD5ka2ikAgFRs9m6RR6PEMb54vHEar2d)"><path d=" M 251.387 952.71 C 327.747 997.994 416.861 1024 512 1024 C 794.58 1024 1024 794.58 1024 512 C 1024 229.42 794.58 0 512 0 C 229.42 0 0 229.42 0 512 C 0 589.095 17.076 662.233 47.65 727.834 L 26.487 838.94 L 1.396 970.666 C -6.393 1011.561 19.198 1033.638 58.509 1019.937 L 185.132 975.803 L 251.387 952.71 Z " fill-rule="evenodd" fill="rgb(20,20,21)"/><linearGradient id="_lgradient_5" x1="-0.3749996654667433" y1="1.4902223748351189" x2="1.353394735455211" y2="-0.4010586047472122" gradientTransform="matrix(599.957,0,0,547,212.022,222.98)" gradientUnits="userSpaceOnUse"><stop offset="1.25%" stop-opacity="1" style="stop-color:rgb(5,134,255)"/><stop offset="99.16666666666667%" stop-opacity="1" style="stop-color:rgb(190,61,255)"/></linearGradient><path d=" M 592.592 660.287 C 592.592 599.746 641.744 550.594 702.285 550.594 C 762.827 550.594 811.978 599.746 811.978 660.287 C 811.978 720.829 762.827 769.98 702.285 769.98 C 641.744 769.98 592.592 720.829 592.592 660.287 Z  M 562.644 236.489 L 562.644 236.489 C 610.832 264.31 627.367 326.02 599.546 374.207 L 400.15 719.57 C 372.329 767.758 310.619 784.293 262.432 756.472 L 262.432 756.472 C 214.244 728.651 197.709 666.941 225.53 618.754 L 424.926 273.39 C 452.747 225.203 514.456 208.668 562.644 236.489 Z " fill-rule="evenodd" fill="url(#_lgradient_5)"/></g></svg>